<svg width="44" height="44" viewBox="0 0 44 44" fill="none" xmlns="http://www.w3.org/2000/svg">
<path d="M21.9998 14.71C17.9857 14.71 14.7099 17.9858 14.7099 21.9999C14.7099 26.0139 17.9857 29.2897 21.9998 29.2897C26.0138 29.2897 29.2896 26.0139 29.2896 21.9999C29.2896 17.9858 26.0138 14.71 21.9998 14.71ZM43.8638 21.9999C43.8638 18.9811 43.8912 15.9897 43.7216 12.9764C43.5521 9.47643 42.7537 6.37018 40.1943 3.81081C37.6295 1.24596 34.5287 0.452994 31.0287 0.283462C28.0099 0.113931 25.0185 0.141275 22.0052 0.141275C18.9865 0.141275 15.9951 0.113931 12.9818 0.283462C9.4818 0.452994 6.37555 1.25143 3.81618 3.81081C1.25133 6.37565 0.458365 9.47643 0.288834 12.9764C0.119302 15.9952 0.146646 18.9866 0.146646 21.9999C0.146646 25.0131 0.119302 28.01 0.288834 31.0233C0.458365 34.5233 1.2568 37.6296 3.81618 40.1889C6.38102 42.7538 9.4818 43.5467 12.9818 43.7163C16.0006 43.8858 18.992 43.8585 22.0052 43.8585C25.024 43.8585 28.0154 43.8858 31.0287 43.7163C34.5287 43.5467 37.6349 42.7483 40.1943 40.1889C42.7591 37.6241 43.5521 34.5233 43.7216 31.0233C43.8966 28.01 43.8638 25.0186 43.8638 21.9999ZM21.9998 33.2163C15.7927 33.2163 10.7834 28.2069 10.7834 21.9999C10.7834 15.7928 15.7927 10.7835 21.9998 10.7835C28.2068 10.7835 33.2162 15.7928 33.2162 21.9999C33.2162 28.2069 28.2068 33.2163 21.9998 33.2163ZM33.6756 12.9436C32.2263 12.9436 31.056 11.7733 31.056 10.3241C31.056 8.87487 32.2263 7.70456 33.6756 7.70456C35.1248 7.70456 36.2951 8.87487 36.2951 10.3241C36.2955 10.6682 36.2281 11.009 36.0966 11.327C35.9651 11.6451 35.7721 11.934 35.5288 12.1773C35.2855 12.4207 34.9965 12.6136 34.6785 12.7451C34.3605 12.8766 34.0197 12.944 33.6756 12.9436Z" fill="white"/>
</svg>
