<svg width="117" height="117" viewBox="0 0 117 117" fill="none" xmlns="http://www.w3.org/2000/svg">
<circle r="47.5" transform="matrix(-1 0 0 1 58.5 54.5)" stroke="#FFDAC9" stroke-width="2"/>
<g filter="url(#filter0_d)">
<circle r="30.5" transform="matrix(-1 0 0 1 58.5 54.5)" fill="url(#paint0_linear)"/>
</g>
<path fill-rule="evenodd" clip-rule="evenodd" d="M60.0002 45.3845C60.0002 44.8322 59.5525 44.3845 59.0002 44.3845C58.4479 44.3845 58.0002 44.8322 58.0002 45.3845V48.9999C58.0002 51.2091 56.2094 52.9999 54.0002 52.9999H50.3848C49.8325 52.9999 49.3848 53.4476 49.3848 53.9999C49.3848 54.5522 49.8325 54.9999 50.3848 54.9999H54.0002C56.2094 54.9999 58.0002 56.7908 58.0002 58.9999V62.6153C58.0002 63.1676 58.4479 63.6153 59.0002 63.6153C59.5525 63.6153 60.0002 63.1676 60.0002 62.6153V58.9999C60.0002 56.7908 61.7911 54.9999 64.0002 54.9999H67.6155C68.1678 54.9999 68.6155 54.5522 68.6155 53.9999C68.6155 53.4476 68.1678 52.9999 67.6155 52.9999H64.0002C61.7911 52.9999 60.0002 51.2091 60.0002 48.9999V45.3845Z" fill="#AAACAD"/>
<defs>
<filter id="filter0_d" x="0" y="0" width="117" height="117" filterUnits="userSpaceOnUse" color-interpolation-filters="sRGB">
<feFlood flood-opacity="0" result="BackgroundImageFix"/>
<feColorMatrix in="SourceAlpha" type="matrix" values="0 0 0 0 0 0 0 0 0 0 0 0 0 0 0 0 0 0 127 0"/>
<feOffset dy="4"/>
<feGaussianBlur stdDeviation="14"/>
<feColorMatrix type="matrix" values="0 0 0 0 0 0 0 0 0 0 0 0 0 0 0 0 0 0 0.09 0"/>
<feBlend mode="normal" in2="BackgroundImageFix" result="effect1_dropShadow"/>
<feBlend mode="normal" in="SourceGraphic" in2="effect1_dropShadow" result="shape"/>
</filter>
<linearGradient id="paint0_linear" x1="30.5" y1="0" x2="30.5" y2="61" gradientUnits="userSpaceOnUse">
<stop stop-color="#F7F7F7"/>
<stop offset="1" stop-color="white"/>
</linearGradient>
</defs>
</svg>
