<svg width="44" height="44" viewBox="0 0 44 44" fill="none" xmlns="http://www.w3.org/2000/svg">
<path d="M42.125 0.125H1.875C0.907031 0.125 0.125 0.907031 0.125 1.875V42.125C0.125 43.093 0.907031 43.875 1.875 43.875H42.125C43.093 43.875 43.875 43.093 43.875 42.125V1.875C43.875 0.907031 43.093 0.125 42.125 0.125ZM37.0719 12.8945H33.5773C30.8375 12.8945 30.307 14.1961 30.307 16.1102V20.3266H36.8477L35.9945 26.9273H30.307V43.875H23.4875V26.9328H17.7836V20.3266H23.4875V15.4594C23.4875 9.81016 26.9383 6.73125 31.9805 6.73125C34.3977 6.73125 36.4703 6.91172 37.0773 6.99375V12.8945H37.0719Z" fill="white"/>
</svg>
